<?xml version="1.0" encoding="UTF-8" standalone="no"?>
<!-- Generator: Adobe Illustrator 24.3.0, SVG Export Plug-In . SVG Version: 6.00 Build 0)  -->

<svg
   xmlns:dc="http://purl.org/dc/elements/1.1/"
   xmlns:cc="http://creativecommons.org/ns#"
   xmlns:rdf="http://www.w3.org/1999/02/22-rdf-syntax-ns#"
   xmlns:svg="http://www.w3.org/2000/svg"
   xmlns="http://www.w3.org/2000/svg"
   xmlns:sodipodi="http://sodipodi.sourceforge.net/DTD/sodipodi-0.dtd"
   xmlns:inkscape="http://www.inkscape.org/namespaces/inkscape"
   version="1.1"
   id="Capa_1"
   x="0px"
   y="0px"
   viewBox="0 0 24 24"
   xml:space="preserve"
   sodipodi:docname="cert.svg"
   inkscape:version="0.92.5 (2060ec1f9f, 2020-04-08)"
   width="24"
   height="24"><metadata
   id="metadata37"><rdf:RDF><cc:Work
       rdf:about=""><dc:format>image/svg+xml</dc:format><dc:type
         rdf:resource="http://purl.org/dc/dcmitype/StillImage" /><dc:title /></cc:Work></rdf:RDF></metadata><defs
   id="defs35"><clipPath
     clipPathUnits="userSpaceOnUse"
     id="clipPath2914"><rect
       style="opacity:1;fill:#ffffff;fill-opacity:1;fill-rule:nonzero;stroke:none;stroke-width:19.33243942;stroke-linecap:square;stroke-linejoin:miter;stroke-miterlimit:4;stroke-dasharray:none;stroke-dashoffset:0;stroke-opacity:1"
       id="rect2916"
       width="65.913162"
       height="58.053082"
       x="157.0282"
       y="76.806473"
       ry="0" /></clipPath></defs><sodipodi:namedview
   pagecolor="#ffffff"
   bordercolor="#666666"
   borderopacity="1"
   objecttolerance="10"
   gridtolerance="10"
   guidetolerance="10"
   inkscape:pageopacity="0"
   inkscape:pageshadow="2"
   inkscape:window-width="1920"
   inkscape:window-height="1054"
   id="namedview33"
   showgrid="false"
   inkscape:zoom="32"
   inkscape:cx="8.32037"
   inkscape:cy="12.733958"
   inkscape:window-x="0"
   inkscape:window-y="1080"
   inkscape:window-maximized="1"
   inkscape:current-layer="Capa_1"
   inkscape:pagecheckerboard="true" />
<style
   type="text/css"
   id="style2">
	.st0{fill:#5F7993;}
	.st1{fill:#17B5C8;}
	.st2{fill:#11828F;}
	.st3{fill:#405162;}
	.st4{fill:#A6D100;}
	.st5{fill:#89AB00;}
	.st6{fill:#FFFFFF;}
	.st7{fill:none;stroke:#17B5C8;stroke-width:2;stroke-miterlimit:10;}
</style>

<g
   id="g1134"
   transform="matrix(0.06312099,0,0,0.06266842,1.0179896,3.2471709)" /><g
   id="g2488"
   transform="matrix(0.04432553,0,0,0.04400773,5.4114166,5.4334974)"
   style="stroke-width:0.28480643;stroke-miterlimit:4;stroke-dasharray:none" /><path
   style="opacity:1;fill:#17b5c8;fill-opacity:1;fill-rule:nonzero;stroke:none;stroke-width:0.25108501;stroke-linecap:round;stroke-linejoin:bevel;stroke-miterlimit:4;stroke-dasharray:none;stroke-dashoffset:0;stroke-opacity:1"
   d="M 0.00146506,6.6483334 V 3.7394173 c 0,-0.4321024 0.35037792,-0.7799682 0.78560069,-0.7799682 H 23.095895 c 0.435223,0 0.785601,0.3478658 0.785601,0.7799682 V 15.375081 c 0,0.432103 -0.350378,0.779969 -0.785601,0.779969 H 0.78706575 c -0.43522277,0 -0.78560069,-0.347866 -0.78560069,-0.779969 V 9.5572494"
   id="rect908"
   inkscape:connector-curvature="0"
   sodipodi:nodetypes="cssssssssc" /><rect
   style="opacity:1;fill:#ffffff;fill-opacity:1;fill-rule:nonzero;stroke:none;stroke-width:0.13072303;stroke-linecap:round;stroke-linejoin:bevel;stroke-miterlimit:4;stroke-dasharray:none;stroke-dashoffset:0;stroke-opacity:1"
   id="rect910-7"
   width="14.162427"
   height="1.2113994"
   x="2.1585116"
   y="9.1678715"
   ry="0.30284986" /><g
   id="g2090"
   transform="matrix(1.2682485,0,0,1.2682485,-5.0834434,-5.0127668)"><path
     clip-path="url(#clipPath2914)"
     transform="matrix(0.14943284,0,0,0.14500771,-10.523665,-3.4215883)"
     d="m 220.26704,136.83316 c -0.64225,1.16701 -12.19108,1.21974 -13.14621,2.14823 -0.90449,0.87927 -0.75142,11.93489 -1.89304,12.47148 -1.20553,0.56662 -10.57973,-6.17895 -11.8982,-5.98919 -1.24857,0.17969 -7.62306,9.21385 -8.86205,8.97693 -1.30835,-0.25018 -4.92729,-11.21748 -6.10549,-11.83894 -1.11573,-0.58851 -11.58295,2.97344 -12.44606,2.05351 -0.91142,-0.97143 2.60721,-11.97132 2.01932,-13.16662 -0.55673,-1.13193 -11.11856,-4.40273 -11.2761,-5.65429 -0.16636,-1.32162 9.14584,-8.15252 9.3728,-9.4651 0.21493,-1.24299 -6.40724,-10.0972 -5.79905,-11.20233 0.64225,-1.16701 12.19108,-1.21974 13.14621,-2.14823 0.90449,-0.87927 0.75142,-11.934893 1.89304,-12.471478 1.20553,-0.566627 10.57973,6.178946 11.8982,5.98919 1.24857,-0.179695 7.62306,-9.213855 8.86205,-8.976936 1.30835,0.250184 4.92729,11.217482 6.10549,11.838945 1.11573,0.588513 11.58295,-2.973441 12.44606,-2.053513 0.91142,0.971433 -2.60721,11.971322 -2.01932,13.166622 0.55673,1.13193 11.11856,4.40273 11.2761,5.65429 0.16636,1.32162 -9.14584,8.15252 -9.3728,9.4651 -0.21493,1.24299 6.40724,10.0972 5.79905,11.20233 z"
     inkscape:randomized="0"
     inkscape:rounded="0.1"
     inkscape:flatsided="false"
     sodipodi:arg2="0.81725229"
     sodipodi:arg1="0.48538331"
     sodipodi:r2="24.656752"
     sodipodi:r1="33.936874"
     sodipodi:cy="121"
     sodipodi:cx="190.25"
     sodipodi:sides="10"
     id="path874-5"
     style="opacity:1;fill:#17b5c8;fill-opacity:1;fill-rule:nonzero;stroke:#17b5c8;stroke-width:1.9074595;stroke-linecap:round;stroke-linejoin:round;stroke-miterlimit:4;stroke-dasharray:none;stroke-dashoffset:0;stroke-opacity:1"
     sodipodi:type="star" /><path
     sodipodi:nodetypes="ccccccc"
     inkscape:connector-curvature="0"
     id="path876-3"
     d="m 21.698087,19.42503 1.058857,2.20918 -2.025639,-1.036029 -0.61383,2.133003 -1.657343,-6.216179 1.534576,-0.914143 1.381118,3.016674"
     style="fill:#5f7993;stroke:#000000;stroke-width:0.3425104;stroke-linecap:round;stroke-linejoin:bevel;stroke-miterlimit:4;stroke-dasharray:none;stroke-opacity:1" /><path
     sodipodi:nodetypes="cccccc"
     inkscape:connector-curvature="0"
     id="path876-3-6"
     d="m 16.061404,15.703212 -2.762236,6.03335 2.025639,-1.03603 0.613831,2.133002 1.65734,-6.216178 z"
     style="fill:#5f7993;stroke:#000000;stroke-width:0.3425104;stroke-linecap:round;stroke-linejoin:bevel;stroke-miterlimit:4;stroke-dasharray:none;stroke-opacity:1" /><path
     id="path874"
     d="m 21.582048,16.078269 c -0.07884,0.142239 -1.496651,0.14867 -1.613909,0.261838 -0.111037,0.107175 -0.09224,1.454695 -0.232399,1.520097 -0.147999,0.06906 -1.298831,-0.753126 -1.460695,-0.729998 -0.153282,0.02189 -0.935854,1.123039 -1.087958,1.094162 -0.160622,-0.0305 -0.604904,-1.367252 -0.749548,-1.443 -0.136972,-0.07172 -1.421993,0.362421 -1.527953,0.250295 -0.111885,-0.118402 0.320077,-1.459135 0.247904,-1.604825 -0.06835,-0.137959 -1.364981,-0.536631 -1.384323,-0.689178 -0.02042,-0.161087 1.1228,-0.993676 1.150663,-1.153661 0.02638,-0.151504 -0.786592,-1.230707 -0.711927,-1.365406 0.07884,-0.142238 1.496649,-0.148669 1.613907,-0.261838 0.111038,-0.107175 0.09224,-1.454695 0.232402,-1.520097 0.147997,-0.06907 1.298831,0.753125 1.460694,0.729997 0.153282,-0.0219 0.935854,-1.123038 1.087959,-1.094161 0.160621,0.03049 0.604904,1.367251 0.749546,1.442999 0.136973,0.07172 1.421995,-0.36242 1.527954,-0.250294 0.111885,0.118402 -0.320077,1.459134 -0.247903,1.604825 0.06835,0.137959 1.364981,0.536631 1.384321,0.689178 0.02043,0.161086 -1.122798,0.993677 -1.150661,1.153661 -0.02638,0.151504 0.786592,1.230707 0.711926,1.365406 z"
     style="opacity:1;fill:#a6d100;fill-opacity:1;fill-rule:nonzero;stroke:#000000;stroke-width:0.3425104;stroke-linecap:round;stroke-linejoin:round;stroke-miterlimit:4;stroke-dasharray:none;stroke-dashoffset:0;stroke-opacity:1"
     inkscape:connector-curvature="0" /><path
     sodipodi:nodetypes="csssssc"
     inkscape:connector-curvature="0"
     id="path866"
     d="m 17.058609,12.078315 c 0.276154,-0.115961 0.579768,-0.180091 0.898469,-0.180091 1.274801,0 2.308232,1.026022 2.308232,2.291683 0,1.26566 -1.033432,2.291682 -2.308232,2.291682 -1.274802,0 -2.308233,-1.02602 -2.308233,-2.291682 0,-0.316415 0.06459,-0.617853 0.181392,-0.892026 0.1168,-0.274173 0.28582,-0.521081 0.494674,-0.728438"
     style="opacity:1;fill:#ffffff;fill-opacity:1;fill-rule:nonzero;stroke:#000000;stroke-width:0.3425104;stroke-linecap:round;stroke-linejoin:round;stroke-miterlimit:4;stroke-dasharray:none;stroke-dashoffset:0;stroke-opacity:1" /></g><rect
   style="opacity:1;fill:#ffffff;fill-opacity:1;fill-rule:nonzero;stroke:none;stroke-width:0.1526203;stroke-linecap:round;stroke-linejoin:bevel;stroke-miterlimit:4;stroke-dasharray:none;stroke-dashoffset:0;stroke-opacity:1"
   id="rect910"
   width="19.304478"
   height="1.2113994"
   x="2.1803"
   y="5.057766"
   ry="0.30284986" /><rect
   style="opacity:1;fill:#ffffff;fill-opacity:1;fill-rule:nonzero;stroke:none;stroke-width:0.07196619;stroke-linecap:round;stroke-linejoin:bevel;stroke-miterlimit:4;stroke-dasharray:none;stroke-dashoffset:0;stroke-opacity:1"
   id="rect910-5"
   width="4.2923045"
   height="1.2113994"
   x="7.3441386"
   y="7.0046582"
   ry="0.30284986" /><rect
   style="opacity:1;fill:#ffffff;fill-opacity:1;fill-rule:nonzero;stroke:none;stroke-width:0.07104705;stroke-linecap:round;stroke-linejoin:bevel;stroke-miterlimit:4;stroke-dasharray:none;stroke-dashoffset:0;stroke-opacity:1"
   id="rect910-3"
   width="4.183363"
   height="1.2113994"
   x="2.1367233"
   y="7.0046582"
   ry="0.30284986" /></svg>