<?xml version="1.0" encoding="UTF-8" standalone="no"?>
<!-- Generator: Adobe Illustrator 24.3.0, SVG Export Plug-In . SVG Version: 6.00 Build 0)  -->

<svg
   xmlns:dc="http://purl.org/dc/elements/1.1/"
   xmlns:cc="http://creativecommons.org/ns#"
   xmlns:rdf="http://www.w3.org/1999/02/22-rdf-syntax-ns#"
   xmlns:svg="http://www.w3.org/2000/svg"
   xmlns="http://www.w3.org/2000/svg"
   xmlns:sodipodi="http://sodipodi.sourceforge.net/DTD/sodipodi-0.dtd"
   xmlns:inkscape="http://www.inkscape.org/namespaces/inkscape"
   version="1.1"
   id="Capa_1"
   x="0px"
   y="0px"
   viewBox="0 0 300 200"
   style="enable-background:new 0 0 300 200;"
   xml:space="preserve"
   sodipodi:docname="federation.svg"
   inkscape:version="0.92.5 (2060ec1f9f, 2020-04-08)"><metadata
   id="metadata1153"><rdf:RDF><cc:Work
       rdf:about=""><dc:format>image/svg+xml</dc:format><dc:type
         rdf:resource="http://purl.org/dc/dcmitype/StillImage" /><dc:title /></cc:Work></rdf:RDF></metadata><defs
   id="defs1151">
	
	
	
	
	
	
	
	
	
	
</defs><sodipodi:namedview
   pagecolor="#ffffff"
   bordercolor="#666666"
   borderopacity="1"
   objecttolerance="10"
   gridtolerance="10"
   guidetolerance="10"
   inkscape:pageopacity="0"
   inkscape:pageshadow="2"
   inkscape:window-width="1920"
   inkscape:window-height="1025"
   id="namedview1149"
   showgrid="false"
   inkscape:zoom="3.2432632"
   inkscape:cx="210.13283"
   inkscape:cy="151.83363"
   inkscape:window-x="0"
   inkscape:window-y="29"
   inkscape:window-maximized="1"
   inkscape:current-layer="Capa_1" />
<style
   type="text/css"
   id="style1112">
	.st0{fill:#5F7993;}
	.st1{fill:#17B5C8;}
	.st2{fill:#11828F;}
	.st3{fill:#405162;}
	.st4{fill:#A6D100;}
	.st5{fill:#89AB00;}
	.st6{fill:#FFFFFF;}
	.st7{fill:none;stroke:#17B5C8;stroke-width:2;stroke-miterlimit:10;}
</style>
<g
   id="g1134"
   transform="translate(-34)">
		
	</g><g
   id="g2488"
   transform="matrix(0.70223137,0,0,0.70223137,35.603275,34.88721)"
   style="stroke-width:0.28480643;stroke-miterlimit:4;stroke-dasharray:none" />
<g
   id="g2163"><path
     sodipodi:nodetypes="cssscccsscc"
     class="st4"
     d="m 88.3,67.610764 0.33792,-9.483121 c 0.62321,-17.4889 13.35519,-31.7 30.85519,-31.7 C 136.99311,26.427643 151.7,43.5 151.7,61 v 27.9 h 14.6 V 57.3 C 166.4,31.7 145.6,11 120,11 94.4,11 73.6,31.8 73.6,57.4 l -0.33792,10.041801 z"
     id="path1118"
     inkscape:connector-curvature="0"
     style="fill:#5f7993;stroke:#000000;stroke-width:3.03500009;stroke-miterlimit:4;stroke-dasharray:none;stroke-opacity:1" /><rect
     x="153.30986"
     y="77.777901"
     class="st5"
     width="11.598294"
     height="11.122103"
     id="rect1122"
     style="fill:#405162;stroke-width:0.87274039" /><path
     style="fill:#17b5c8;stroke-width:0.57253426;stroke-miterlimit:4;stroke-dasharray:none"
     inkscape:connector-curvature="0"
     id="path1114"
     d="M 185.69857,199 H 44.74907 C 42.076572,199 39.8,196.75451 39.8,193.89659 V 81.519633 c 0,-2.755844 2.177591,-5.10341 4.94907,-5.10341 h 140.9495 c 2.6725,0 4.94906,2.245498 4.94906,5.10341 V 193.89659 c 0,2.85792 -2.17757,5.10341 -4.94906,5.10341 z"
     class="st1"
     transform="matrix(0.70223137,0,0,0.70223137,35.603275,34.88721)" /><path
     style="fill:#11828f;stroke-width:0.28480643;stroke-miterlimit:4;stroke-dasharray:none"
     inkscape:connector-curvature="0"
     id="path1116"
     d="M 57.1,190.6 V 87.3 c 0,-4.6 3.8,-8.4 8.4,-8.4 H 48.2 c -4.6,0 -8.4,3.8 -8.4,8.4 v 103.3 c 0,4.6 3.8,8.4 8.4,8.4 h 17.3 c -4.6,0 -8.4,-3.7 -8.4,-8.4 z"
     class="st2"
     transform="matrix(0.70223137,0,0,0.70223137,35.603275,34.88721)" /><g
     style="stroke-width:0.14240322;stroke-miterlimit:4;stroke-dasharray:none"
     id="g1144"
     transform="matrix(0.70223137,0,0,0.70223137,100.02682,59.305814)">
		
		<path
   sodipodi:nodetypes="ccczzzzcc"
   inkscape:connector-curvature="0"
   id="path1958"
   d="m 11.95136,130.85224 18.9,-1e-5 -3.4,-26.29999 c 3.76109,-2.02079 8.14537,-6.194221 8.10001,-12.900011 -0.0454,-6.70579 -4.10241,-10.78653 -8.59681,-13.00753 -4.49439,-2.22101 -10.29044,-0.79464 -13.04925,0.96584 -2.75881,1.76048 -6.6655101,6.12209 -6.8209601,12.29189 -0.15544,6.1698 4.7368801,11.045221 8.2670101,12.649811 l -3.4,26.3"
   style="fill:#ffffff;stroke:#000000;stroke-width:4.27209616;stroke-linecap:round;stroke-linejoin:round;stroke-miterlimit:4;stroke-dasharray:none;stroke-opacity:1" />
	</g><path
     sodipodi:nodetypes="cccssssssssccc"
     inkscape:connector-curvature="0"
     id="rect1955"
     d="m 115.88207,76.915946 h 16.48113 m 32.96226,0 h 16.48113 c 5.81769,0 10.50125,5.257556 10.50125,11.788236 v 98.562758 c 0,6.53069 -4.68356,11.78825 -10.50125,11.78825 H 49.95756 c -5.817693,0 -10.50125,-5.25756 -10.50125,-11.78825 V 88.704182 c 0,-6.53068 4.683557,-11.788236 10.50125,-11.788236 h 16.481129 16.481129 l 16.772833,-0.654902"
     style="opacity:1;fill:none;fill-opacity:1;fill-rule:nonzero;stroke:#000000;stroke-width:4.25266266;stroke-linecap:round;stroke-linejoin:bevel;stroke-miterlimit:4;stroke-dasharray:none;stroke-dashoffset:0;stroke-opacity:1"
     transform="matrix(0.70223137,0,0,0.70223137,35.603275,34.88721)" /><g
     transform="translate(0,-4.9333031)"
     id="g2477"><path
       style="fill:#a6d100;stroke:none;stroke-width:1px;stroke-linecap:butt;stroke-linejoin:miter;stroke-opacity:1"
       d="m 146.40839,161.64646 13.38112,-0.23895 v -3.22581 l -3.91137,-0.35613 0.23895,-4.30108 3.94265,-10e-6 -0.27023,-8.246 v -3.22581 -3.2258 -3.22581 l 70.96774,0.23895 c 0,0 1.67264,7.64636 5.73477,11.23059 4.06213,3.58423 11.35006,3.58422 15.17324,0.71684 3.82318,-2.86739 6.57108,-13.97849 6.33213,-19.23536 -0.23895,-5.25687 -1.67263,-16.60693 -5.25686,-20.66906 -3.58423,-4.06212 -15.41219,-5.25687 -18.75747,1.67264 -3.34528,6.92951 -2.71664,10.39655 -2.71664,10.39655 l -95.84968,1.07299 1e-5,14.81481 h 11.11111 z"
       id="path2389-3"
       inkscape:connector-curvature="0"
       sodipodi:nodetypes="cccccccccccscscsccccc" /><rect
       style="opacity:1;fill:#89ab00;fill-opacity:1;fill-rule:nonzero;stroke:none;stroke-width:1.48913383;stroke-linecap:round;stroke-linejoin:round;stroke-miterlimit:4;stroke-dasharray:none;stroke-dashoffset:0;stroke-opacity:1"
       id="rect2428"
       width="4.301074"
       height="25.806444"
       x="146.55914"
       y="135.48387"
       ry="0" /><path
       style="opacity:1;fill:#89ab00;fill-opacity:1;fill-rule:nonzero;stroke:none;stroke-width:1.48913383;stroke-linecap:round;stroke-linejoin:round;stroke-miterlimit:4;stroke-dasharray:none;stroke-dashoffset:0;stroke-opacity:1"
       d="m 136.41355,130.22701 84.10019,0.24868 c 3.42493,2.74583 6.84986,4.24312 10.27479,4.7595 0.13623,0.0205 -0.11091,0.24868 -0.24868,0.24868 h -94.1263 c -0.13777,0 -0.24868,-0.11091 -0.24868,-0.24868 v -4.7595 c 0,-0.13777 0.11098,-0.25315 0.24868,-0.24868 z"
       id="rect2425"
       inkscape:connector-curvature="0"
       sodipodi:nodetypes="ccsssssc" /><path
       style="fill:none;stroke:#000000;stroke-width:3.01200008;stroke-linecap:butt;stroke-linejoin:miter;stroke-miterlimit:4;stroke-dasharray:none;stroke-opacity:1"
       d="m 231.26642,119.95221 -95.8184,0.71685 10e-6,14.81481 h 11.11111 l -0.11947,25.80645 13.38112,-0.23895 v -3.22581 l -3.94265,1e-5 0.23895,-4.30108 3.94265,-10e-6 -0.23895,-8.60214 v -3.22581 -3.2258 -3.22581 l 35.48387,0.11947 m 9.46188,0.16897 26.02199,-0.0495"
       id="path2389"
       inkscape:connector-curvature="0"
       sodipodi:nodetypes="ccccccccccccccccc" /><path
       style="opacity:1;fill:#a6d100;fill-opacity:1;fill-rule:nonzero;stroke:none;stroke-width:1.26090837;stroke-linecap:round;stroke-linejoin:round;stroke-miterlimit:4;stroke-dasharray:none;stroke-dashoffset:0;stroke-opacity:1"
       d="m 273.91746,127.40417 a 23.568754,31.314337 0 0 1 -23.56875,31.31433 23.568754,31.314337 0 0 1 -23.56876,-31.31433 23.568754,31.314337 0 0 1 23.56876,-31.31434 23.568754,31.314337 0 0 1 23.56875,31.31434 z"
       id="path2406-6"
       inkscape:connector-curvature="0" /><ellipse
       style="opacity:1;fill:#ffffff;fill-opacity:1;fill-rule:nonzero;stroke:#000000;stroke-width:3.03299999;stroke-linecap:round;stroke-linejoin:round;stroke-miterlimit:4;stroke-dasharray:none;stroke-dashoffset:0;stroke-opacity:1"
       id="path2406"
       cx="261.63806"
       cy="126.69576"
       rx="7.6246243"
       ry="9.5555573" /><path
       style="fill:none;stroke:#000000;stroke-width:3.01200008;stroke-linecap:butt;stroke-linejoin:miter;stroke-miterlimit:4;stroke-dasharray:none;stroke-opacity:1"
       d="m 227.2043,119.71326 c 0,0 2.62297,-9.87268 5.61529,-13.85902 2.74067,-3.6511 6.46104,-6.925918 10.75269,-8.482675 4.00742,-1.453653 8.73358,-1.68833 12.78375,-0.358423 4.36721,1.434009 10.87217,8.482678 10.87217,8.482678 v 0"
       id="path2446"
       inkscape:connector-curvature="0"
       sodipodi:nodetypes="caaacc" /><path
       style="fill:none;stroke:#000000;stroke-width:3.01200008;stroke-linecap:butt;stroke-linejoin:miter;stroke-miterlimit:4;stroke-dasharray:none;stroke-opacity:1"
       d="m 227.32378,135.12545 c 0.79156,2.81826 0.70835,4.3557 3.2258,9.19952 2.51745,4.84382 6.47152,8.55823 7.76583,10.03584 1.2943,1.47761 5.61695,3.53579 9.08005,4.06213 3.4631,0.52634 7.63412,0.21645 10.99164,-1.31422 3.66851,-1.67245 6.60853,-4.84966 8.96057,-8.12425 2.78834,-3.88202 4.71628,-8.47232 5.73477,-13.14218 0.94213,-4.31972 0.7739,-8.87286 0.23895,-13.26164 -0.52364,-4.29593 -3.34528,-12.54481 -3.34528,-12.54481"
       id="path2448"
       inkscape:connector-curvature="0"
       sodipodi:nodetypes="czzzaaaac" /></g></g></svg>