<?xml version="1.0" encoding="UTF-8" standalone="no"?>
<!-- Generator: Adobe Illustrator 24.3.0, SVG Export Plug-In . SVG Version: 6.00 Build 0)  -->

<svg
   xmlns:dc="http://purl.org/dc/elements/1.1/"
   xmlns:cc="http://creativecommons.org/ns#"
   xmlns:rdf="http://www.w3.org/1999/02/22-rdf-syntax-ns#"
   xmlns:svg="http://www.w3.org/2000/svg"
   xmlns="http://www.w3.org/2000/svg"
   xmlns:sodipodi="http://sodipodi.sourceforge.net/DTD/sodipodi-0.dtd"
   xmlns:inkscape="http://www.inkscape.org/namespaces/inkscape"
   version="1.1"
   id="Capa_1"
   x="0px"
   y="0px"
   viewBox="0 0 300 200"
   style="enable-background:new 0 0 300 200;"
   xml:space="preserve"
   sodipodi:docname="federation.svg"
   inkscape:version="0.92.5 (2060ec1f9f, 2020-04-08)"><metadata
   id="metadata1153"><rdf:RDF><cc:Work
       rdf:about=""><dc:format>image/svg+xml</dc:format><dc:type
         rdf:resource="http://purl.org/dc/dcmitype/StillImage" /><dc:title></dc:title></cc:Work></rdf:RDF></metadata><defs
   id="defs1151">
	
	
	
	
	
	
	
	
	
	
</defs><sodipodi:namedview
   pagecolor="#ffffff"
   bordercolor="#666666"
   borderopacity="1"
   objecttolerance="10"
   gridtolerance="10"
   guidetolerance="10"
   inkscape:pageopacity="0"
   inkscape:pageshadow="2"
   inkscape:window-width="1920"
   inkscape:window-height="1027"
   id="namedview1149"
   showgrid="false"
   inkscape:zoom="1.6216316"
   inkscape:cx="150"
   inkscape:cy="117.82629"
   inkscape:window-x="0"
   inkscape:window-y="27"
   inkscape:window-maximized="1"
   inkscape:current-layer="Capa_1" />
<style
   type="text/css"
   id="style1112">
	.st0{fill:#5F7993;}
	.st1{fill:#17B5C8;}
	.st2{fill:#11828F;}
	.st3{fill:#405162;}
	.st4{fill:#A6D100;}
	.st5{fill:#89AB00;}
	.st6{fill:#FFFFFF;}
	.st7{fill:none;stroke:#17B5C8;stroke-width:2;stroke-miterlimit:10;}
</style>
<path
   style="fill:#5f7993;stroke:#000000;stroke-width:2.13543296;stroke-miterlimit:4;stroke-dasharray:none;stroke-opacity:1"
   inkscape:connector-curvature="0"
   id="path1118"
   d="m 88.3,67.610764 0.33792,-9.483121 c 0.62321,-17.4889 13.35519,-31.7 30.85519,-31.7 C 136.99311,26.427643 151.7,43.5 151.7,61 v 27.9 h 14.6 V 57.3 C 166.4,31.7 145.6,11 120,11 94.4,11 73.6,31.8 73.6,57.4 l -0.33792,10.041801 z"
   class="st4"
   sodipodi:nodetypes="cssscccsscc" /><rect
   style="fill:#405162;stroke-width:0.91283363"
   id="rect1122"
   height="11.122103"
   width="12.688411"
   class="st5"
   y="77.777901"
   x="152.65579" /><g
   id="g1134"
   transform="translate(-34)">
		
	</g><g
   id="g2488"
   transform="matrix(0.70223137,0,0,0.70223137,35.603275,34.88721)"><path
     class="st1"
     d="M 187.2,199 H 44.8 c -2.7,0 -5,-2.2 -5,-5 V 83.9 c 0,-2.7 2.2,-5 5,-5 h 142.4 c 2.7,0 5,2.2 5,5 V 194 c 0,2.8 -2.2,5 -5,5 z"
     id="path1114"
     inkscape:connector-curvature="0"
     style="fill:#17b5c8" /><path
     class="st2"
     d="M 57.1,190.6 V 87.3 c 0,-4.6 3.8,-8.4 8.4,-8.4 H 48.2 c -4.6,0 -8.4,3.8 -8.4,8.4 v 103.3 c 0,4.6 3.8,8.4 8.4,8.4 h 17.3 c -4.6,0 -8.4,-3.7 -8.4,-8.4 z"
     id="path1116"
     inkscape:connector-curvature="0"
     style="fill:#11828f" /><g
     transform="translate(-34)"
     id="g1126">
		<path
   d="M 217.8,200 H 82.2 c -5.2,0 -9.4,-4.2 -9.4,-9.4 V 87.3 c 0,-5.2 4.2,-9.4 9.4,-9.4 h 57 c 0.5,0 1,0.4 1,1 0,0.5 -0.4,1 -1,1 h -57 c -4.1,0 -7.4,3.3 -7.4,7.4 v 103.3 c 0,4.1 3.3,7.4 7.4,7.4 h 135.6 c 4.1,0 7.4,-3.3 7.4,-7.4 V 87.3 c 0,-4.1 -3.3,-7.4 -7.4,-7.4 h -55.7 c -0.5,0 -1,-0.4 -1,-1 0,-0.5 0.4,-1 1,-1 h 55.7 c 5.2,0 9.4,4.2 9.4,9.4 v 103.3 c 0,5.2 -4.2,9.4 -9.4,9.4 z"
   id="path1124"
   inkscape:connector-curvature="0" />
	</g><g
     transform="translate(-34)"
     id="g1130">
		<path
   d="m 153.8,79.9 h -7.3 c -0.5,0 -1,-0.4 -1,-1 0,-0.5 0.4,-1 1,-1 h 7.3 c 0.5,0 1,0.4 1,1 -0.1,0.5 -0.5,1 -1,1 z"
   id="path1128"
   inkscape:connector-curvature="0" />
	</g><g
     transform="translate(-34)"
     id="g1144">
		<path
   class="st6"
   d="m 164.2,125.9 c 0,-7.9 -6.4,-14.2 -14.2,-14.2 -7.9,0 -14.2,6.4 -14.2,14.2 0,5.7 3.3,10.6 8.2,12.9 l -3.4,26.3 h 18.9 l -3.4,-26.3 c 4.8,-2.3 8.1,-7.2 8.1,-12.9 z"
   id="path1140"
   inkscape:connector-curvature="0"
   style="fill:#ffffff" />
		<path
   d="m 159.4,166.1 h -18.9 c -0.3,0 -0.6,-0.1 -0.7,-0.3 -0.2,-0.2 -0.3,-0.5 -0.2,-0.8 l 3.3,-25.6 c -4.9,-2.6 -8.1,-7.8 -8.1,-13.4 0,-8.4 6.8,-15.2 15.2,-15.2 8.4,0 15.2,6.8 15.2,15.2 0,5.6 -3.2,10.8 -8.1,13.4 l 3.3,25.6 c 0,0.3 -0.1,0.6 -0.2,0.8 -0.2,0.1 -0.5,0.3 -0.8,0.3 z m -17.7,-2 h 16.6 l -3.2,-25.2 c -0.1,-0.4 0.2,-0.8 0.6,-1 4.6,-2.2 7.6,-6.9 7.6,-12 0,-7.3 -5.9,-13.2 -13.2,-13.2 -7.3,0 -13.2,5.9 -13.2,13.2 0,5.1 3,9.8 7.6,12 0.4,0.2 0.6,0.6 0.6,1 z"
   id="path1142"
   inkscape:connector-curvature="0" />
	</g></g>
<g
   id="g2477"
   transform="translate(0,-4.9333031)"><path
     sodipodi:nodetypes="cccccccccccscscsccccc"
     inkscape:connector-curvature="0"
     id="path2389-3"
     d="m 146.40839,161.64646 13.38112,-0.23895 v -3.22581 l -3.91137,-0.35613 0.23895,-4.30108 3.94265,-10e-6 -0.27023,-8.246 v -3.22581 -3.2258 -3.22581 l 70.96774,0.23895 c 0,0 1.67264,7.64636 5.73477,11.23059 4.06213,3.58423 11.35006,3.58422 15.17324,0.71684 3.82318,-2.86739 6.57108,-13.97849 6.33213,-19.23536 -0.23895,-5.25687 -1.67263,-16.60693 -5.25686,-20.66906 -3.58423,-4.06212 -15.41219,-5.25687 -18.75747,1.67264 -3.34528,6.92951 -2.71664,10.39655 -2.71664,10.39655 l -95.84968,1.07299 1e-5,14.81481 h 11.11111 z"
     style="fill:#a6d100;stroke:none;stroke-width:1px;stroke-linecap:butt;stroke-linejoin:miter;stroke-opacity:1" /><rect
     ry="0"
     y="135.48387"
     x="146.55914"
     height="25.806444"
     width="4.301074"
     id="rect2428"
     style="opacity:1;fill:#89ab00;fill-opacity:1;fill-rule:nonzero;stroke:none;stroke-width:1.48913383;stroke-linecap:round;stroke-linejoin:round;stroke-miterlimit:4;stroke-dasharray:none;stroke-dashoffset:0;stroke-opacity:1" /><path
     sodipodi:nodetypes="ccsssssc"
     inkscape:connector-curvature="0"
     id="rect2425"
     d="m 136.41355,130.22701 84.10019,0.24868 c 3.42493,2.74583 6.84986,4.24312 10.27479,4.7595 0.13623,0.0205 -0.11091,0.24868 -0.24868,0.24868 h -94.1263 c -0.13777,0 -0.24868,-0.11091 -0.24868,-0.24868 v -4.7595 c 0,-0.13777 0.11098,-0.25315 0.24868,-0.24868 z"
     style="opacity:1;fill:#89ab00;fill-opacity:1;fill-rule:nonzero;stroke:none;stroke-width:1.48913383;stroke-linecap:round;stroke-linejoin:round;stroke-miterlimit:4;stroke-dasharray:none;stroke-dashoffset:0;stroke-opacity:1" /><path
     sodipodi:nodetypes="ccccccccccccccccc"
     inkscape:connector-curvature="0"
     id="path2389"
     d="m 231.26642,119.95221 -95.8184,0.71685 10e-6,14.81481 h 11.11111 l -0.11947,25.80645 13.38112,-0.23895 v -3.22581 l -3.94265,1e-5 0.23895,-4.30108 3.94265,-10e-6 -0.23895,-8.60214 v -3.22581 -3.2258 -3.22581 l 35.48387,0.11947 m 9.46188,0.16897 26.02199,-0.0495"
     style="fill:none;stroke:#000000;stroke-width:1.51181102;stroke-linecap:butt;stroke-linejoin:miter;stroke-miterlimit:4;stroke-dasharray:none;stroke-opacity:1" /><path
     inkscape:connector-curvature="0"
     id="path2406-6"
     d="m 273.91746,127.40417 a 23.568754,31.314337 0 0 1 -23.56875,31.31433 23.568754,31.314337 0 0 1 -23.56876,-31.31433 23.568754,31.314337 0 0 1 23.56876,-31.31434 23.568754,31.314337 0 0 1 23.56875,31.31434 z"
     style="opacity:1;fill:#a6d100;fill-opacity:1;fill-rule:nonzero;stroke:none;stroke-width:1.26090837;stroke-linecap:round;stroke-linejoin:round;stroke-miterlimit:4;stroke-dasharray:none;stroke-dashoffset:0;stroke-opacity:1" /><ellipse
     ry="9.5555573"
     rx="7.6246243"
     cy="126.69576"
     cx="261.63806"
     id="path2406"
     style="opacity:1;fill:#ffffff;fill-opacity:1;fill-rule:nonzero;stroke:#000000;stroke-width:0.93271029;stroke-linecap:round;stroke-linejoin:round;stroke-miterlimit:4;stroke-dasharray:none;stroke-dashoffset:0;stroke-opacity:1" /><path
     sodipodi:nodetypes="caaacc"
     inkscape:connector-curvature="0"
     id="path2446"
     d="m 227.2043,119.71326 c 0,0 2.62297,-9.87268 5.61529,-13.85902 2.74067,-3.6511 6.46104,-6.925918 10.75269,-8.482675 4.00742,-1.453653 8.73358,-1.68833 12.78375,-0.358423 4.36721,1.434009 10.87217,8.482678 10.87217,8.482678 v 0"
     style="fill:none;stroke:#000000;stroke-width:1.51181102;stroke-linecap:butt;stroke-linejoin:miter;stroke-miterlimit:4;stroke-dasharray:none;stroke-opacity:1" /><path
     sodipodi:nodetypes="czzzaaaac"
     inkscape:connector-curvature="0"
     id="path2448"
     d="m 227.32378,135.12545 c 0.79156,2.81826 0.70835,4.3557 3.2258,9.19952 2.51745,4.84382 6.47152,8.55823 7.76583,10.03584 1.2943,1.47761 5.61695,3.53579 9.08005,4.06213 3.4631,0.52634 7.63412,0.21645 10.99164,-1.31422 3.66851,-1.67245 6.60853,-4.84966 8.96057,-8.12425 2.78834,-3.88202 4.71628,-8.47232 5.73477,-13.14218 0.94213,-4.31972 0.7739,-8.87286 0.23895,-13.26164 -0.52364,-4.29593 -3.34528,-12.54481 -3.34528,-12.54481"
     style="fill:none;stroke:#000000;stroke-width:1.51181102;stroke-linecap:butt;stroke-linejoin:miter;stroke-miterlimit:4;stroke-dasharray:none;stroke-opacity:1" /></g></svg>