<?xml version="1.0" encoding="UTF-8" standalone="no"?>
<!-- Generator: Adobe Illustrator 24.3.0, SVG Export Plug-In . SVG Version: 6.00 Build 0)  -->

<svg
   xmlns:dc="http://purl.org/dc/elements/1.1/"
   xmlns:cc="http://creativecommons.org/ns#"
   xmlns:rdf="http://www.w3.org/1999/02/22-rdf-syntax-ns#"
   xmlns:svg="http://www.w3.org/2000/svg"
   xmlns="http://www.w3.org/2000/svg"
   xmlns:sodipodi="http://sodipodi.sourceforge.net/DTD/sodipodi-0.dtd"
   xmlns:inkscape="http://www.inkscape.org/namespaces/inkscape"
   version="1.1"
   id="Capa_1"
   x="0px"
   y="0px"
   viewBox="0 0 24 24"
   xml:space="preserve"
   sodipodi:docname="fido.svg"
   inkscape:version="0.92.5 (2060ec1f9f, 2020-04-08)"
   width="24"
   height="24"><metadata
   id="metadata37"><rdf:RDF><cc:Work
       rdf:about=""><dc:format>image/svg+xml</dc:format><dc:type
         rdf:resource="http://purl.org/dc/dcmitype/StillImage" /><dc:title /></cc:Work></rdf:RDF></metadata><defs
   id="defs35" /><sodipodi:namedview
   pagecolor="#ffffff"
   bordercolor="#666666"
   borderopacity="1"
   objecttolerance="10"
   gridtolerance="10"
   guidetolerance="10"
   inkscape:pageopacity="0"
   inkscape:pageshadow="2"
   inkscape:window-width="1920"
   inkscape:window-height="1025"
   id="namedview33"
   showgrid="false"
   inkscape:zoom="32"
   inkscape:cx="8.576539"
   inkscape:cy="12.279007"
   inkscape:window-x="0"
   inkscape:window-y="29"
   inkscape:window-maximized="1"
   inkscape:current-layer="Capa_1"
   inkscape:pagecheckerboard="true" />
<style
   type="text/css"
   id="style2">
	.st0{fill:#5F7993;}
	.st1{fill:#17B5C8;}
	.st2{fill:#11828F;}
	.st3{fill:#405162;}
	.st4{fill:#A6D100;}
	.st5{fill:#89AB00;}
	.st6{fill:#FFFFFF;}
	.st7{fill:none;stroke:#17B5C8;stroke-width:2;stroke-miterlimit:10;}
</style>

<path
   d="M 4.2569489,21.611429 4.156996,11.294506 H 0.11622134 l -0.007305,-3.1358152 8.39137996,-0.00945 -0.00731,13.4870512 c -0.50313,-0.0022 -0.8876011,-0.0054 -1.3636115,-0.0095 L 7.0246767,15.62653 5.6705629,15.5984 l 0.045229,6.019042 c -0.5279246,-9.03e-4 -0.9308997,-0.0032 -1.4588149,-0.0062 z"
   style="font-style:normal;font-variant:normal;font-weight:normal;font-stretch:normal;font-size:53.33333206px;line-height:1.25;font-family:Garuda;-inkscape-font-specification:Garuda;letter-spacing:0px;word-spacing:0px;fill:#17b5c8;fill-opacity:1;stroke:none;stroke-width:0.60287815"
   id="path844"
   inkscape:connector-curvature="0"
   sodipodi:nodetypes="cccccccccccc" /><path
   d="m 16.094136,21.772375 c -1.406133,-0.09668 -2.866117,-0.03993 -4.173692,-1.669032 -1.286141,-1.650544 -1.393095,-4.286778 -1.379469,-5.695201 0.01589,-1.637627 -0.09424,-2.388599 1.025959,-4.053146 0.625668,-0.9297022 2.554133,-2.2523762 4.868816,-2.2110873 1.400905,0.025076 2.813162,0.5748118 3.503018,1.4506031 l -0.09994,-7.3816976 4.136059,-0.024993 -0.149947,19.2736708 -3.711259,-0.07495 v -1.583047 c -1.114654,1.629108 -2.880896,2.047174 -4.01955,1.968887 z m 3.751666,-8.783022 c -0.583195,-1.286935 -1.617945,-1.872395 -2.928739,-1.870019 -1.310798,0.0024 -2.629659,2.270315 -2.489907,3.863536 0,1.247665 0.482884,2.273838 0.93998,2.695534 0.448346,0.413628 1.075395,1.007896 1.750914,1.016809 1.131308,0.01482 2.247825,-0.575757 2.770743,-1.730927 z"
   style="font-style:normal;font-variant:normal;font-weight:normal;font-stretch:normal;font-size:53.33333206px;line-height:1.25;font-family:Garuda;-inkscape-font-specification:Garuda;letter-spacing:0px;word-spacing:0px;fill:#17b5c8;fill-opacity:1;stroke:none;stroke-width:0.60287815"
   id="path846"
   inkscape:connector-curvature="0"
   sodipodi:nodetypes="scsssccccccssczcsscc" /><ellipse
   ry="2.2588432"
   rx="2.2963254"
   cy="4.0893607"
   cx="6.3832698"
   id="path863"
   style="opacity:1;fill:#17b5c8;fill-opacity:1;fill-rule:nonzero;stroke:none;stroke-width:0.47174934;stroke-linecap:round;stroke-linejoin:round;stroke-miterlimit:4;stroke-dasharray:none;stroke-dashoffset:0;stroke-opacity:1" /></svg>