<?xml version="1.0" encoding="UTF-8" standalone="no"?>
<!-- Created with Inkscape (http://www.inkscape.org/) -->

<svg
   width="75mm"
   height="75mm"
   viewBox="0 0 75 75.000001"
   version="1.1"
   id="svg1013"
   inkscape:version="1.1.2 (0a00cf5339, 2022-02-04)"
   sodipodi:docname="openid.svg"
   xmlns:inkscape="http://www.inkscape.org/namespaces/inkscape"
   xmlns:sodipodi="http://sodipodi.sourceforge.net/DTD/sodipodi-0.dtd"
   xmlns="http://www.w3.org/2000/svg"
   xmlns:svg="http://www.w3.org/2000/svg">
  <sodipodi:namedview
     id="namedview1015"
     pagecolor="#ffffff"
     bordercolor="#666666"
     borderopacity="1.0"
     inkscape:pageshadow="2"
     inkscape:pageopacity="0.0"
     inkscape:pagecheckerboard="0"
     inkscape:document-units="mm"
     showgrid="false"
     fit-margin-top="0"
     fit-margin-left="0"
     fit-margin-right="0"
     fit-margin-bottom="0"
     inkscape:zoom="0.64052329"
     inkscape:cx="140.51011"
     inkscape:cy="130.36216"
     inkscape:window-width="1920"
     inkscape:window-height="1011"
     inkscape:window-x="0"
     inkscape:window-y="32"
     inkscape:window-maximized="1"
     inkscape:current-layer="layer1" />
  <defs
     id="defs1010" />
  <g
     inkscape:label="Layer 1"
     inkscape:groupmode="layer"
     id="layer1"
     transform="translate(-67.660459,-113.99248)">
    <path
       d="m 101.52712,119.50746 v 56.42295 7.07704 l 11.28889,-5.31315 v -63.70182 z"
       style="fill:#f8941c;fill-opacity:1;fill-rule:nonzero;stroke:none;stroke-width:0.352778"
       id="path852" />
    <path
       d="m 140.62277,138.13405 1.55822,16.1798 -21.83095,-4.7498"
       style="fill:#bcbec0;fill-opacity:1;fill-rule:nonzero;stroke:none;stroke-width:0.352778"
       id="path854" />
    <path
       d="m 78.949347,158.83943 c 0,-7.99889 8.716081,-14.73518 20.596225,-16.79152 v -7.17021 c -18.171583,2.1964 -31.885113,12.08864 -31.885113,23.96173 0,12.301 14.719652,22.47511 33.866661,24.16809 v -7.07707 C 88.645092,174.31543 78.949347,167.27752 78.949347,158.83943 m 35.848223,-23.95891 v 7.16739 c 4.72687,0.81809 8.95526,2.37314 12.32997,4.45911 l 7.98226,-4.93324 c -5.43983,-3.36233 -12.46081,-5.74428 -20.31223,-6.69326"
       style="fill:#bcbec0;fill-opacity:1;fill-rule:nonzero;stroke:none;stroke-width:0.352778"
       id="path856" />
    <path
       d="m 101.52712,119.50746 v 56.42295 7.07704 l 11.28889,-5.31315 v -63.70182 z"
       style="fill:#f8941c;fill-opacity:1;fill-rule:nonzero;stroke:none;stroke-width:0.352778"
       id="path870" />
    <path
       d="m 140.62277,138.13405 1.55822,16.1798 -21.83095,-4.7498"
       style="fill:#bcbec0;fill-opacity:1;fill-rule:nonzero;stroke:none;stroke-width:0.352778"
       id="path872" />
    <path
       d="m 78.949347,158.83943 c 0,-7.99889 8.716081,-14.73518 20.596225,-16.79152 v -7.17021 c -18.171583,2.1964 -31.885113,12.08864 -31.885113,23.96173 0,12.301 14.719652,22.47511 33.866661,24.16809 v -7.07707 C 88.645092,174.31543 78.949347,167.27752 78.949347,158.83943 m 35.848223,-23.95891 v 7.16739 c 4.72687,0.81809 8.95526,2.37314 12.32997,4.45911 l 7.98226,-4.93324 c -5.43983,-3.36233 -12.46081,-5.74428 -20.31223,-6.69326"
       style="fill:#bcbec0;fill-opacity:1;fill-rule:nonzero;stroke:none;stroke-width:0.352778"
       id="path874" />
  </g>
</svg>
