<?xml version="1.0" encoding="UTF-8" standalone="no"?>
<!-- Generator: Adobe Illustrator 24.3.0, SVG Export Plug-In . SVG Version: 6.00 Build 0)  -->

<svg
   xmlns:dc="http://purl.org/dc/elements/1.1/"
   xmlns:cc="http://creativecommons.org/ns#"
   xmlns:rdf="http://www.w3.org/1999/02/22-rdf-syntax-ns#"
   xmlns:svg="http://www.w3.org/2000/svg"
   xmlns="http://www.w3.org/2000/svg"
   xmlns:sodipodi="http://sodipodi.sourceforge.net/DTD/sodipodi-0.dtd"
   xmlns:inkscape="http://www.inkscape.org/namespaces/inkscape"
   version="1.1"
   id="Capa_1"
   x="0px"
   y="0px"
   viewBox="0 0 300 200"
   style="enable-background:new 0 0 300 200;"
   xml:space="preserve"
   sodipodi:docname="providers.svg"
   inkscape:version="0.92.5 (2060ec1f9f, 2020-04-08)"><metadata
   id="metadata37"><rdf:RDF><cc:Work
       rdf:about=""><dc:format>image/svg+xml</dc:format><dc:type
         rdf:resource="http://purl.org/dc/dcmitype/StillImage" /></cc:Work></rdf:RDF></metadata><defs
   id="defs35"><clipPath
     clipPathUnits="userSpaceOnUse"
     id="clipPath989"><path
       sodipodi:nodetypes="czzzcczzc"
       inkscape:connector-curvature="0"
       id="path991"
       d="m 119.82154,148.24494 c 0,0 21.62975,-1.88965 37.66704,-3.43386 16.0373,-1.5442 37.02706,-1.03183 55.93899,0.1815 18.91193,1.21333 37.76754,8.33922 45.34808,15.7313 7.58053,7.39207 17.22453,2.50239 16.99266,9.78974 -0.69834,12.48218 128.1926,-31.10925 118.32074,-37.92114 2.10001,-19.98078 -15.82068,-143.794211 -44.56999,-148.445719 -28.74932,-4.651508 -187.92736,-10.155278 -205.37877,-2.688427 -17.45141,7.46685 -24.31875,166.786606 -24.31875,166.786606 z"
       style="fill:#ffffff;stroke:none;stroke-width:1.44468427px;stroke-linecap:butt;stroke-linejoin:miter;stroke-opacity:1" /></clipPath></defs><sodipodi:namedview
   pagecolor="#ffffff"
   bordercolor="#666666"
   borderopacity="1"
   objecttolerance="10"
   gridtolerance="10"
   guidetolerance="10"
   inkscape:pageopacity="0"
   inkscape:pageshadow="2"
   inkscape:window-width="1920"
   inkscape:window-height="1025"
   id="namedview33"
   showgrid="false"
   inkscape:zoom="2.8284271"
   inkscape:cx="155.14941"
   inkscape:cy="84.477249"
   inkscape:window-x="0"
   inkscape:window-y="29"
   inkscape:window-maximized="1"
   inkscape:current-layer="Capa_1" />
<style
   type="text/css"
   id="style2">
	.st0{fill:#5F7993;}
	.st1{fill:#17B5C8;}
	.st2{fill:#11828F;}
	.st3{fill:#405162;}
	.st4{fill:#A6D100;}
	.st5{fill:#89AB00;}
	.st6{fill:#FFFFFF;}
	.st7{fill:none;stroke:#17B5C8;stroke-width:2;stroke-miterlimit:10;}
</style>

<path
   style="fill:#5f7993;stroke:none;stroke-width:1px;stroke-linecap:butt;stroke-linejoin:miter;stroke-opacity:1"
   d="m 54.093669,160.75557 42.072853,37.12311 c 0,0 10.523718,-7.01561 16.970558,-12.37437 13.16436,1.35875 52.14242,7.27235 63.63961,3.88909 11.49719,-3.38326 19.01585,-11.05035 35.35535,-20.5061 16.3395,-9.45575 22.18341,-13.08312 25.45584,-16.97056 3.27243,-3.88744 9.52144,-11.2791 -4.5962,-16.97057 -4.52719,-1.82511 -16.36863,6.34859 -29.2909,10.7733 -12.92228,4.4247 -17.67227,11.27771 -30.45962,12.56122 -10.49048,1.05297 -37.2577,1.14975 -42.07285,-3.18196 -4.6077,-4.14509 -0.96918,-2.14335 -0.96918,-2.14335 0,0 17.21732,-1.91824 20.06106,-1.3922 6.84389,1.26601 28.24487,1.10264 29.69849,-12.72792 1.45361,-13.83055 -6.96999,-8.44752 -26.87006,-11.66726 -19.90007,-3.21974 -38.83195,-1.27941 -50.91169,3.88909 -12.079741,5.1685 -48.083261,29.69848 -48.083261,29.69848 z"
   id="path844"
   inkscape:connector-curvature="0"
   sodipodi:nodetypes="ccczzzsssscszzzc" /><path
   style="fill:#405162;stroke:none;stroke-width:1px;stroke-linecap:butt;stroke-linejoin:miter;stroke-opacity:1"
   d="m 111.91652,171.87868 c 0,0 -5.22628,18.98439 1.22056,13.62563 13.16436,1.35875 52.14242,7.27235 63.63961,3.88909 11.49719,-3.38326 19.01585,-11.05035 35.35535,-20.5061 16.3395,-9.45575 22.18341,-13.08312 25.45584,-16.97056 3.27243,-3.88744 3.83152,-3.2604 3.1538,-11.47057 -11.7775,11.65572 -14.76572,14.12132 -28.2909,21.0233 -6.80118,3.47068 -26.28616,14.91279 -41.45962,17.81122 -15.17346,2.89843 -48.78152,-0.94989 -59.07464,-7.40201 z"
   id="path844-3"
   inkscape:connector-curvature="0"
   sodipodi:nodetypes="cczzzcszc" /><path
   style="fill:#405162;stroke:none;stroke-width:1px;stroke-linecap:butt;stroke-linejoin:miter;stroke-opacity:1"
   d="m 130.19913,152.95538 c 0,0 17.21732,-1.91824 20.06106,-1.3922 6.84389,1.26601 28.24487,1.10264 29.69849,-12.72792 1.45361,-13.83055 -10.5752,1.64805 -12.34924,3.21752 -2.03827,1.80323 -12.92163,4.50261 -20.0009,5.97488 -7.07926,1.47226 -6.36162,-0.50488 -17.40941,4.92772 z"
   id="path844-6"
   inkscape:connector-curvature="0"
   sodipodi:nodetypes="cszszc" /><path
   style="fill:none;stroke:#000000;stroke-width:1.37952756;stroke-linecap:round;stroke-linejoin:bevel;stroke-opacity:1;stroke-miterlimit:4;stroke-dasharray:none"
   d="m 84.630095,187.81712 11.536427,10.06156 c 0,0 10.523718,-7.01561 16.970558,-12.37437 13.16436,1.35875 52.14242,7.27235 63.63961,3.88909 11.49719,-3.38326 19.01585,-11.05035 35.35535,-20.5061 16.3395,-9.45575 22.18341,-13.08312 25.45584,-16.97056 3.27243,-3.88744 9.52144,-11.2791 -4.5962,-16.97057 -4.52719,-1.82511 -16.64242,5.6178 -29.2909,10.7733 -6.96114,2.83735 -5.87921,2.15678 -10.15541,4.42731 m -7.25,3.75 c -4.2762,2.27052 -6.66054,3.74215 -13.05421,4.38391 -10.49048,1.05297 -37.2577,1.14975 -42.07285,-3.18196 -4.6077,-4.14509 -0.96918,-2.14335 -0.96918,-2.14335 0,0 17.21732,-1.91824 20.06106,-1.3922 6.84389,1.26601 28.24487,1.10264 29.69849,-12.72792 1.45361,-13.83055 -6.96999,-8.44752 -26.87006,-11.66726 -19.90007,-3.21974 -38.83195,-1.27941 -50.91169,3.88909 -12.079741,5.1685 -48.083261,29.69848 -48.083261,29.69848 l 12.786426,11.56155"
   id="path844-7"
   inkscape:connector-curvature="0"
   sodipodi:nodetypes="ccczzzssccsscszzzcc" /><g
   id="g1999"
   transform="matrix(0.69219275,0,0,0.69219275,7.1540641,15.641497)"
   clip-path="url(#clipPath989)"><path
     sodipodi:nodetypes="cssscccsscc"
     class="st4"
     d="m 191.36862,50.47788 0.33792,-9.483121 c 0.62321,-17.4889 13.35519,-31.7 30.85519,-31.7 17.5,0 32.20689,17.072357 32.20689,34.572357 v 27.9 h 14.6 v -31.6 c 0.1,-25.6 -20.7,-46.2999995 -46.3,-46.2999995 -25.6,0 -46.4,20.7999995 -46.4,46.3999995 l -0.33792,10.041801 z"
     id="path1118"
     inkscape:connector-curvature="0"
     style="fill:#5f7993;stroke:#000000;stroke-width:2.13543296;stroke-miterlimit:4;stroke-dasharray:none;stroke-opacity:1" /><rect
     x="255.72441"
     y="60.64502"
     class="st5"
     width="12.688411"
     height="11.122103"
     id="rect1122"
     style="fill:#405162;stroke-width:0.91283363" /><g
     transform="matrix(0.70223137,0,0,0.70223137,138.67189,17.754326)"
     id="g2488"><path
       style="fill:#17b5c8"
       inkscape:connector-curvature="0"
       id="path1114"
       d="M 187.2,199 H 44.8 c -2.7,0 -5,-2.2 -5,-5 V 83.9 c 0,-2.7 2.2,-5 5,-5 h 142.4 c 2.7,0 5,2.2 5,5 V 194 c 0,2.8 -2.2,5 -5,5 z"
       class="st1" /><path
       style="fill:#11828f"
       inkscape:connector-curvature="0"
       id="path1116"
       d="M 57.1,190.6 V 87.3 c 0,-4.6 3.8,-8.4 8.4,-8.4 H 48.2 c -4.6,0 -8.4,3.8 -8.4,8.4 v 103.3 c 0,4.6 3.8,8.4 8.4,8.4 h 17.3 c -4.6,0 -8.4,-3.7 -8.4,-8.4 z"
       class="st2" /><g
       id="g1126"
       transform="translate(-34)"><path
         inkscape:connector-curvature="0"
         id="path1124"
         d="M 217.8,200 H 82.2 c -5.2,0 -9.4,-4.2 -9.4,-9.4 V 87.3 c 0,-5.2 4.2,-9.4 9.4,-9.4 h 57 c 0.5,0 1,0.4 1,1 0,0.5 -0.4,1 -1,1 h -57 c -4.1,0 -7.4,3.3 -7.4,7.4 v 103.3 c 0,4.1 3.3,7.4 7.4,7.4 h 135.6 c 4.1,0 7.4,-3.3 7.4,-7.4 V 87.3 c 0,-4.1 -3.3,-7.4 -7.4,-7.4 h -55.7 c -0.5,0 -1,-0.4 -1,-1 0,-0.5 0.4,-1 1,-1 h 55.7 c 5.2,0 9.4,4.2 9.4,9.4 v 103.3 c 0,5.2 -4.2,9.4 -9.4,9.4 z" /></g><g
       id="g1130"
       transform="translate(-34)"><path
         inkscape:connector-curvature="0"
         id="path1128"
         d="m 153.8,79.9 h -7.3 c -0.5,0 -1,-0.4 -1,-1 0,-0.5 0.4,-1 1,-1 h 7.3 c 0.5,0 1,0.4 1,1 -0.1,0.5 -0.5,1 -1,1 z" /></g><g
       id="g1144"
       transform="translate(-34)"><path
         style="fill:#ffffff"
         inkscape:connector-curvature="0"
         id="path1140"
         d="m 164.2,125.9 c 0,-7.9 -6.4,-14.2 -14.2,-14.2 -7.9,0 -14.2,6.4 -14.2,14.2 0,5.7 3.3,10.6 8.2,12.9 l -3.4,26.3 h 18.9 l -3.4,-26.3 c 4.8,-2.3 8.1,-7.2 8.1,-12.9 z"
         class="st6" /><path
         inkscape:connector-curvature="0"
         id="path1142"
         d="m 159.4,166.1 h -18.9 c -0.3,0 -0.6,-0.1 -0.7,-0.3 -0.2,-0.2 -0.3,-0.5 -0.2,-0.8 l 3.3,-25.6 c -4.9,-2.6 -8.1,-7.8 -8.1,-13.4 0,-8.4 6.8,-15.2 15.2,-15.2 8.4,0 15.2,6.8 15.2,15.2 0,5.6 -3.2,10.8 -8.1,13.4 l 3.3,25.6 c 0,0.3 -0.1,0.6 -0.2,0.8 -0.2,0.1 -0.5,0.3 -0.8,0.3 z m -17.7,-2 h 16.6 l -3.2,-25.2 c -0.1,-0.4 0.2,-0.8 0.6,-1 4.6,-2.2 7.6,-6.9 7.6,-12 0,-7.3 -5.9,-13.2 -13.2,-13.2 -7.3,0 -13.2,5.9 -13.2,13.2 0,5.1 3,9.8 7.6,12 0.4,0.2 0.6,0.6 0.6,1 z" /></g></g><g
     transform="translate(103.06862,-22.066187)"
     id="g2477"><path
       style="fill:#a6d100;stroke:none;stroke-width:1px;stroke-linecap:butt;stroke-linejoin:miter;stroke-opacity:1"
       d="m 146.40839,161.64646 13.38112,-0.23895 v -3.22581 l -3.91137,-0.35613 0.23895,-4.30108 3.94265,-10e-6 -0.27023,-8.246 v -3.22581 -3.2258 -3.22581 l 70.96774,0.23895 c 0,0 1.67264,7.64636 5.73477,11.23059 4.06213,3.58423 11.35006,3.58422 15.17324,0.71684 3.82318,-2.86739 6.57108,-13.97849 6.33213,-19.23536 -0.23895,-5.25687 -1.67263,-16.60693 -5.25686,-20.66906 -3.58423,-4.06212 -15.41219,-5.25687 -18.75747,1.67264 -3.34528,6.92951 -2.71664,10.39655 -2.71664,10.39655 l -95.84968,1.07299 1e-5,14.81481 h 11.11111 z"
       id="path2389-3"
       inkscape:connector-curvature="0"
       sodipodi:nodetypes="cccccccccccscscsccccc" /><rect
       style="opacity:1;fill:#89ab00;fill-opacity:1;fill-rule:nonzero;stroke:none;stroke-width:1.48913383;stroke-linecap:round;stroke-linejoin:round;stroke-miterlimit:4;stroke-dasharray:none;stroke-dashoffset:0;stroke-opacity:1"
       id="rect2428"
       width="4.301074"
       height="25.806444"
       x="146.55914"
       y="135.48387"
       ry="0" /><path
       style="opacity:1;fill:#89ab00;fill-opacity:1;fill-rule:nonzero;stroke:none;stroke-width:1.48913383;stroke-linecap:round;stroke-linejoin:round;stroke-miterlimit:4;stroke-dasharray:none;stroke-dashoffset:0;stroke-opacity:1"
       d="m 136.41355,130.22701 84.10019,0.24868 c 3.42493,2.74583 6.84986,4.24312 10.27479,4.7595 0.13623,0.0205 -0.11091,0.24868 -0.24868,0.24868 h -94.1263 c -0.13777,0 -0.24868,-0.11091 -0.24868,-0.24868 v -4.7595 c 0,-0.13777 0.11098,-0.25315 0.24868,-0.24868 z"
       id="rect2425"
       inkscape:connector-curvature="0"
       sodipodi:nodetypes="ccsssssc" /><path
       style="fill:none;stroke:#000000;stroke-width:1.51181102;stroke-linecap:butt;stroke-linejoin:miter;stroke-miterlimit:4;stroke-dasharray:none;stroke-opacity:1"
       d="m 231.26642,119.95221 -95.8184,0.71685 10e-6,14.81481 h 11.11111 l -0.11947,25.80645 13.38112,-0.23895 v -3.22581 l -3.94265,1e-5 0.23895,-4.30108 3.94265,-10e-6 -0.23895,-8.60214 v -3.22581 -3.2258 -3.22581 l 35.48387,0.11947 m 9.46188,0.16897 26.02199,-0.0495"
       id="path2389"
       inkscape:connector-curvature="0"
       sodipodi:nodetypes="ccccccccccccccccc" /><path
       style="opacity:1;fill:#a6d100;fill-opacity:1;fill-rule:nonzero;stroke:none;stroke-width:1.26090837;stroke-linecap:round;stroke-linejoin:round;stroke-miterlimit:4;stroke-dasharray:none;stroke-dashoffset:0;stroke-opacity:1"
       d="m 273.91746,127.40417 a 23.568754,31.314337 0 0 1 -23.56875,31.31433 23.568754,31.314337 0 0 1 -23.56876,-31.31433 23.568754,31.314337 0 0 1 23.56876,-31.31434 23.568754,31.314337 0 0 1 23.56875,31.31434 z"
       id="path2406-6"
       inkscape:connector-curvature="0" /><ellipse
       style="opacity:1;fill:#ffffff;fill-opacity:1;fill-rule:nonzero;stroke:#000000;stroke-width:0.93271029;stroke-linecap:round;stroke-linejoin:round;stroke-miterlimit:4;stroke-dasharray:none;stroke-dashoffset:0;stroke-opacity:1"
       id="path2406"
       cx="261.63806"
       cy="126.69576"
       rx="7.6246243"
       ry="9.5555573" /><path
       style="fill:none;stroke:#000000;stroke-width:1.51181102;stroke-linecap:butt;stroke-linejoin:miter;stroke-miterlimit:4;stroke-dasharray:none;stroke-opacity:1"
       d="m 227.2043,119.71326 c 0,0 2.62297,-9.87268 5.61529,-13.85902 2.74067,-3.6511 6.46104,-6.925918 10.75269,-8.482675 4.00742,-1.453653 8.73358,-1.68833 12.78375,-0.358423 4.36721,1.434009 10.87217,8.482678 10.87217,8.482678 v 0"
       id="path2446"
       inkscape:connector-curvature="0"
       sodipodi:nodetypes="caaacc" /><path
       style="fill:none;stroke:#000000;stroke-width:1.51181102;stroke-linecap:butt;stroke-linejoin:miter;stroke-miterlimit:4;stroke-dasharray:none;stroke-opacity:1"
       d="m 227.32378,135.12545 c 0.79156,2.81826 0.70835,4.3557 3.2258,9.19952 2.51745,4.84382 6.47152,8.55823 7.76583,10.03584 1.2943,1.47761 5.61695,3.53579 9.08005,4.06213 3.4631,0.52634 7.63412,0.21645 10.99164,-1.31422 3.66851,-1.67245 6.60853,-4.84966 8.96057,-8.12425 2.78834,-3.88202 4.71628,-8.47232 5.73477,-13.14218 0.94213,-4.31972 0.7739,-8.87286 0.23895,-13.26164 -0.52364,-4.29593 -3.34528,-12.54481 -3.34528,-12.54481"
       id="path2448"
       inkscape:connector-curvature="0"
       sodipodi:nodetypes="czzzaaaac" /></g></g></svg>