<?xml version="1.0" encoding="UTF-8" standalone="no"?>
<!-- Generator: Adobe Illustrator 24.3.0, SVG Export Plug-In . SVG Version: 6.00 Build 0)  -->

<svg
   xmlns:dc="http://purl.org/dc/elements/1.1/"
   xmlns:cc="http://creativecommons.org/ns#"
   xmlns:rdf="http://www.w3.org/1999/02/22-rdf-syntax-ns#"
   xmlns:svg="http://www.w3.org/2000/svg"
   xmlns="http://www.w3.org/2000/svg"
   xmlns:sodipodi="http://sodipodi.sourceforge.net/DTD/sodipodi-0.dtd"
   xmlns:inkscape="http://www.inkscape.org/namespaces/inkscape"
   version="1.1"
   id="Capa_1"
   x="0px"
   y="0px"
   viewBox="0 0 300 200"
   style="enable-background:new 0 0 300 200;"
   xml:space="preserve"
   sodipodi:docname="certificates.svg"
   inkscape:version="0.92.5 (2060ec1f9f, 2020-04-08)"><metadata
   id="metadata37"><rdf:RDF><cc:Work
       rdf:about=""><dc:format>image/svg+xml</dc:format><dc:type
         rdf:resource="http://purl.org/dc/dcmitype/StillImage" /><dc:title /></cc:Work></rdf:RDF></metadata><defs
   id="defs35"><clipPath
     clipPathUnits="userSpaceOnUse"
     id="clipPath989"><path
       sodipodi:nodetypes="czzzcczzc"
       inkscape:connector-curvature="0"
       id="path991"
       d="m 119.82154,148.24494 c 0,0 21.62975,-1.88965 37.66704,-3.43386 16.0373,-1.5442 37.02706,-1.03183 55.93899,0.1815 18.91193,1.21333 37.76754,8.33922 45.34808,15.7313 7.58053,7.39207 17.22453,2.50239 16.99266,9.78974 -0.69834,12.48218 128.1926,-31.10925 118.32074,-37.92114 2.10001,-19.98078 -15.82068,-143.794211 -44.56999,-148.445719 -28.74932,-4.651508 -187.92736,-10.155278 -205.37877,-2.688427 -17.45141,7.46685 -24.31875,166.786606 -24.31875,166.786606 z"
       style="fill:#ffffff;stroke:none;stroke-width:1.44468427px;stroke-linecap:butt;stroke-linejoin:miter;stroke-opacity:1" /></clipPath><clipPath
     clipPathUnits="userSpaceOnUse"
     id="clipPath847"><path
       style="fill:#ffffff;stroke:none;stroke-width:1.38073575px;stroke-linecap:butt;stroke-linejoin:miter;stroke-opacity:1"
       d="m 39.202081,185.95682 c 0,0 19.576201,-17.35535 34.903713,-22.9437 15.327511,-5.58835 36.227566,-5.6448 56.400276,-7.22854 20.1727,-1.58373 66.27182,7.28058 66.27182,7.28058 l 142.15656,2.2225 L 341.07843,-3.6287075 39.460534,-5.476049 Z"
       id="path849"
       inkscape:connector-curvature="0"
       sodipodi:nodetypes="czzccccc" /></clipPath></defs><sodipodi:namedview
   pagecolor="#ffffff"
   bordercolor="#666666"
   borderopacity="1"
   objecttolerance="10"
   gridtolerance="10"
   guidetolerance="10"
   inkscape:pageopacity="0"
   inkscape:pageshadow="2"
   inkscape:window-width="1920"
   inkscape:window-height="1025"
   id="namedview33"
   showgrid="false"
   inkscape:zoom="2.8284271"
   inkscape:cx="243.17718"
   inkscape:cy="85.61492"
   inkscape:window-x="0"
   inkscape:window-y="29"
   inkscape:window-maximized="1"
   inkscape:current-layer="Capa_1"
   inkscape:pagecheckerboard="true" />
<style
   type="text/css"
   id="style2">
	.st0{fill:#5F7993;}
	.st1{fill:#17B5C8;}
	.st2{fill:#11828F;}
	.st3{fill:#405162;}
	.st4{fill:#A6D100;}
	.st5{fill:#89AB00;}
	.st6{fill:#FFFFFF;}
	.st7{fill:none;stroke:#17B5C8;stroke-width:2;stroke-miterlimit:10;}
</style>

<g
   id="g1134"
   transform="matrix(0.72425155,0,0,0.72425155,21.163626,18.575167)" /><g
   id="g2488"
   transform="matrix(0.50859216,0,0,0.50859216,71.573903,43.842283)"
   style="stroke-width:0.28480643;stroke-miterlimit:4;stroke-dasharray:none" /><path
   style="opacity:1;fill:#17b5c8;fill-opacity:1;fill-rule:nonzero;stroke:#000000;stroke-width:2.89133858;stroke-linecap:round;stroke-linejoin:bevel;stroke-miterlimit:4;stroke-dasharray:none;stroke-dashoffset:0;stroke-opacity:1"
   d="M 9.5,57.882 V 24.264 c 0,-4.993756 4.020244,-9.014 9.014,-9.014 h 255.972 c 4.99376,0 9.014,4.020244 9.014,9.014 v 134.472 c 0,4.99376 -4.02024,9.014 -9.014,9.014 H 18.514 c -4.993756,0 -9.014,-4.02024 -9.014,-9.014 V 91.5"
   id="rect908"
   inkscape:connector-curvature="0"
   sodipodi:nodetypes="cssssssssc" /><rect
   style="opacity:1;fill:#ffffff;fill-opacity:1;fill-rule:nonzero;stroke:none;stroke-width:1.50532496;stroke-linecap:round;stroke-linejoin:bevel;stroke-miterlimit:4;stroke-dasharray:none;stroke-dashoffset:0;stroke-opacity:1"
   id="rect910-7"
   width="162.5"
   height="14"
   x="34.25"
   y="87"
   ry="3.5" /><path
   sodipodi:type="star"
   style="opacity:1;fill:#17b5c8;fill-opacity:1;fill-rule:nonzero;stroke:#17b5c8;stroke-width:1.9074595;stroke-linecap:round;stroke-linejoin:round;stroke-miterlimit:4;stroke-dasharray:none;stroke-dashoffset:0;stroke-opacity:1"
   id="path874-5"
   sodipodi:sides="10"
   sodipodi:cx="190.25"
   sodipodi:cy="121"
   sodipodi:r1="33.936874"
   sodipodi:r2="24.656752"
   sodipodi:arg1="0.48538331"
   sodipodi:arg2="0.81725229"
   inkscape:flatsided="false"
   inkscape:rounded="0.1"
   inkscape:randomized="0"
   d="m 220.26704,136.83316 c -0.64225,1.16701 -12.19108,1.21974 -13.14621,2.14823 -0.90449,0.87927 -0.75142,11.93489 -1.89304,12.47148 -1.20553,0.56662 -10.57973,-6.17895 -11.8982,-5.98919 -1.24857,0.17969 -7.62306,9.21385 -8.86205,8.97693 -1.30835,-0.25018 -4.92729,-11.21748 -6.10549,-11.83894 -1.11573,-0.58851 -11.58295,2.97344 -12.44606,2.05351 -0.91142,-0.97143 2.60721,-11.97132 2.01932,-13.16662 -0.55673,-1.13193 -11.11856,-4.40273 -11.2761,-5.65429 -0.16636,-1.32162 9.14584,-8.15252 9.3728,-9.4651 0.21493,-1.24299 -6.40724,-10.0972 -5.79905,-11.20233 0.64225,-1.16701 12.19108,-1.21974 13.14621,-2.14823 0.90449,-0.87927 0.75142,-11.934893 1.89304,-12.471478 1.20553,-0.566627 10.57973,6.178946 11.8982,5.98919 1.24857,-0.179695 7.62306,-9.213855 8.86205,-8.976936 1.30835,0.250184 4.92729,11.217482 6.10549,11.838945 1.11573,0.588513 11.58295,-2.973441 12.44606,-2.053513 0.91142,0.971433 -2.60721,11.971322 -2.01932,13.166622 0.55673,1.13193 11.11856,4.40273 11.2761,5.65429 0.16636,1.32162 -9.14584,8.15252 -9.3728,9.4651 -0.21493,1.24299 6.40724,10.0972 5.79905,11.20233 z"
   transform="matrix(1.2172165,0,0,1.1897011,-33.825442,-16.401446)" /><rect
   style="opacity:1;fill:#11778e;fill-opacity:1;fill-rule:nonzero;stroke:none;stroke-width:1.75748026;stroke-linecap:square;stroke-linejoin:miter;stroke-miterlimit:4;stroke-dasharray:none;stroke-dashoffset:0;stroke-opacity:1"
   id="rect969"
   width="78.25"
   height="7.25"
   x="160.75"
   y="162.14642"
   ry="0" /><path
   style="opacity:1;fill:#11778e;fill-opacity:1;fill-rule:nonzero;stroke:none;stroke-width:2.88605762;stroke-linecap:round;stroke-linejoin:bevel;stroke-miterlimit:4;stroke-dasharray:none;stroke-dashoffset:0;stroke-opacity:1"
   d="m 10.875,146.514 c 2.497307,4.32447 202.15507,-0.68019 220.6061,-2.764 18.45104,-2.08381 37.07432,-8.71621 42.5378,-20 5.46348,-11.28379 7.96533,-90.104731 7.9811,-85.111 l 0.375,118.722 c 0.0158,4.99374 -3.63057,9.26889 -8.6061,9.264 L 19.356102,166.375 C 14.380574,166.37011 10.875,163.22976 10.875,158.236"
   id="rect908-3"
   inkscape:connector-curvature="0"
   sodipodi:nodetypes="czzssssc" /><path
   style="fill:#5f7993;stroke:#000000;stroke-width:2.8;stroke-linecap:round;stroke-linejoin:bevel;stroke-miterlimit:4;stroke-dasharray:none;stroke-opacity:1"
   d="m 228.63927,171.04132 8.625,18.125 -16.5,-8.5 -5,17.5 -13.5,-51 12.5,-7.5 11.25,24.75"
   id="path876-3"
   inkscape:connector-curvature="0"
   sodipodi:nodetypes="ccccccc" /><path
   style="fill:#5f7993;stroke:#000000;stroke-width:2.8;stroke-linecap:round;stroke-linejoin:bevel;stroke-miterlimit:4;stroke-dasharray:none;stroke-opacity:1"
   d="m 182.72524,140.50605 -22.5,49.5 16.5,-8.5 5,17.5 13.5,-51 z"
   id="path876-3-6"
   inkscape:connector-curvature="0"
   sodipodi:nodetypes="cccccc" /><path
   style="opacity:1;fill:#a6d100;fill-opacity:1;fill-rule:nonzero;stroke:#000000;stroke-width:2.8;stroke-linecap:round;stroke-linejoin:round;stroke-miterlimit:4;stroke-dasharray:none;stroke-dashoffset:0;stroke-opacity:1"
   d="m 227.69407,143.58316 c -0.64224,1.16701 -12.19108,1.21974 -13.14621,2.14823 -0.90449,0.87927 -0.75142,11.93489 -1.89303,12.47148 -1.20554,0.56662 -10.57973,-6.17895 -11.89821,-5.98919 -1.24856,0.17969 -7.62306,9.21385 -8.86204,8.97693 -1.30836,-0.25018 -4.92729,-11.21748 -6.1055,-11.83894 -1.11573,-0.58851 -11.58295,2.97344 -12.44605,2.05351 -0.91143,-0.97143 2.60721,-11.97132 2.01931,-13.16662 -0.55673,-1.13193 -11.11855,-4.40273 -11.2761,-5.65429 -0.16636,-1.32162 9.14584,-8.15252 9.37281,-9.4651 0.21492,-1.24299 -6.40724,-10.0972 -5.79905,-11.20233 0.64224,-1.16701 12.19107,-1.21974 13.1462,-2.14823 0.90449,-0.87927 0.75142,-11.934893 1.89304,-12.471478 1.20553,-0.566627 10.57973,6.178948 11.8982,5.989188 1.24857,-0.17969 7.62307,-9.213853 8.86205,-8.976934 1.30835,0.250184 4.92729,11.217484 6.10549,11.838944 1.11574,0.58851 11.58296,-2.97344 12.44606,-2.05351 0.91142,0.97143 -2.60721,11.97132 -2.01931,13.16662 0.55673,1.13193 11.11855,4.40273 11.27609,5.65429 0.16637,1.32162 -9.14584,8.15252 -9.3728,9.4651 -0.21493,1.24299 6.40724,10.0972 5.79905,11.20233 z"
   id="path874" /><path
   style="opacity:1;fill:#ffffff;fill-opacity:1;fill-rule:nonzero;stroke:#000000;stroke-width:2.8;stroke-linecap:round;stroke-linejoin:round;stroke-miterlimit:4;stroke-dasharray:none;stroke-dashoffset:0;stroke-opacity:1"
   d="m 190.84806,110.76595 c 2.24943,-0.95142 4.72254,-1.47754 7.31854,-1.47754 10.38399,0 18.80187,8.41789 18.80187,18.80188 0,10.38398 -8.41789,18.80187 -18.80187,18.80187 -10.38399,0 -18.80188,-8.41788 -18.80188,-18.80187 0,-2.596 0.52612,-5.06911 1.47754,-7.31854 0.95143,-2.24943 2.32817,-4.27516 4.0294,-5.9764"
   id="path866"
   inkscape:connector-curvature="0"
   sodipodi:nodetypes="csssssc" /><rect
   style="opacity:1;fill:#ffffff;fill-opacity:1;fill-rule:nonzero;stroke:none;stroke-width:1.75748026;stroke-linecap:round;stroke-linejoin:bevel;stroke-miterlimit:4;stroke-dasharray:none;stroke-dashoffset:0;stroke-opacity:1"
   id="rect910"
   width="221.5"
   height="14"
   x="34.5"
   y="39.5"
   ry="3.5" /><rect
   style="opacity:1;fill:#ffffff;fill-opacity:1;fill-rule:nonzero;stroke:none;stroke-width:0.82871789;stroke-linecap:round;stroke-linejoin:bevel;stroke-miterlimit:4;stroke-dasharray:none;stroke-dashoffset:0;stroke-opacity:1"
   id="rect910-5"
   width="49.25"
   height="14"
   x="93.75"
   y="62"
   ry="3.5" /><rect
   style="opacity:1;fill:#ffffff;fill-opacity:1;fill-rule:nonzero;stroke:none;stroke-width:0.81813359;stroke-linecap:round;stroke-linejoin:bevel;stroke-miterlimit:4;stroke-dasharray:none;stroke-dashoffset:0;stroke-opacity:1"
   id="rect910-3"
   width="48"
   height="14"
   x="34"
   y="62"
   ry="3.5" /></svg>